<?xml version="1.0" encoding="UTF-8" standalone="no"?>
<!-- Created with Inkscape (http://www.inkscape.org/) -->

<svg
   width="252.45049mm"
   height="88.796997mm"
   viewBox="0 0 252.45049 88.796997"
   version="1.1"
   id="svg5"
   inkscape:version="1.1.2 (b8e25be833, 2022-02-05)"
   sodipodi:docname="1.svg"
   xmlns:inkscape="http://www.inkscape.org/namespaces/inkscape"
   xmlns:sodipodi="http://sodipodi.sourceforge.net/DTD/sodipodi-0.dtd"
   xmlns="http://www.w3.org/2000/svg"
   xmlns:svg="http://www.w3.org/2000/svg">
  <sodipodi:namedview
     id="namedview7"
     pagecolor="#ffffff"
     bordercolor="#666666"
     borderopacity="1.0"
     inkscape:pageshadow="2"
     inkscape:pageopacity="0.0"
     inkscape:pagecheckerboard="0"
     inkscape:document-units="mm"
     showgrid="false"
     inkscape:zoom="0.64052329"
     inkscape:cx="748.60666"
     inkscape:cy="15.612235"
     inkscape:window-width="1920"
     inkscape:window-height="1017"
     inkscape:window-x="-8"
     inkscape:window-y="-8"
     inkscape:window-maximized="1"
     inkscape:current-layer="layer1" />
  <defs
     id="defs2" />
  <g
     inkscape:label="Layer 1"
     inkscape:groupmode="layer"
     id="layer1"
     transform="translate(24.8925,-61.348368)">
    <g
       id="g4688"
       style="clip-rule:evenodd;fill-rule:evenodd"
       transform="matrix(3.4315836,0,0,3.4315836,-34.617608,-319.07222)">
      <path
         id="path1040"
         style="stroke-width:12.9698"
         d="M -93.349609,231.93164 V 450.01562 H 70.216797 V 231.93164 Z m 33.908203,27.13672 h 34.107422 c 37.688038,0 68.164062,36.67097 68.164062,81.61328 0,45.22025 -30.470681,81.94727 -68.164062,81.94727 h -34.107422 z"
         transform="matrix(0.0771024,0,0,0.0771024,10.08794,92.981042)" />
      <path
         id="path1044"
         style="stroke-width:12.9698"
         d="M 78.378906,231.93164 V 450.01562 H 241.89844 V 231.93164 Z M 173.82422,259.5 h 34.10547 v 163.4707 h -34.10547 c -37.62389,0 -68.19727,-36.48594 -68.19727,-81.6582 0,-45.23633 30.56804,-81.8125 68.19727,-81.8125 z"
         transform="matrix(0.0771024,0,0,0.0771024,10.08794,92.981042)" />
      <path
         id="path1048"
         style="stroke-width:12.9698"
         d="m 352.67969,292.44727 v 98.11718 h 53.30859 c 27.38665,0 35.94922,-12.68536 35.94922,-39.62304 v -20.52344 c 0,-27.72339 -12.15088,-37.9707 -39.52148,-37.9707 z m 26.2207,22.78906 h 22.92773 c 9.09859,0 13.21485,2.56011 13.21485,15.18164 v 20.52344 c 0,10.43508 -3.53891,16.77929 -13.21485,16.77929 h -22.92773 z"
         transform="matrix(0.0771024,0,0,0.0771024,10.08794,92.981042)" />
      <path
         id="path1052"
         style="stroke-width:12.9698"
         d="m 491.80469,291.76758 c -26.542,0 -45.47266,5.45822 -45.47266,35.88672 v 27.67968 c 0,30.28946 18.93066,36.03125 45.47266,36.03125 26.61149,0 45.33203,-5.74179 45.33203,-36.03125 V 327.6543 c 0,-30.4285 -18.71518,-35.88672 -45.33203,-35.88672 z m 0,22.73633 c 13.64789,0 18.49023,1.30933 18.49023,15.91406 v 22.16406 c 0,14.59942 -4.84234,16.05274 -18.49023,16.05274 -13.58373,0 -18.08576,-1.45864 -18.47071,-16.05274 v -22.16406 c 0.38491,-14.60473 4.88698,-15.91406 18.47071,-15.91406 z"
         transform="matrix(0.0771024,0,0,0.0771024,10.08794,92.981042)" />
      <path
         id="path1058"
         style="stroke-width:12.9698"
         d="m 615.45312,292.44531 v 98.11328 h 52.00977 c 20.89146,0 32.11719,-3.24493 32.11719,-27.38671 0,-12.29534 -2.55622,-20.95562 -16.92578,-21.91797 v -1.11719 c 12.9155,-2.11161 15.34961,-10.15228 15.34961,-22.63477 0,-21.42605 -11.43615,-25.05468 -30.98047,-25.05468 h -51.56446 z m 26.17774,21.48633 h 21.9668 c 7.35055,0.23527 8.26953,2.42699 8.26953,8.35547 0,7.76214 -2.27249,9.42969 -11.47266,9.42969 h -18.76367 z m 0,35.88672 h 20.26562 c 8.51054,0 11.52735,1.11751 11.52735,9.33398 0,8.02946 -3.49747,10.01758 -12.05078,10.01758 h -19.74219 z"
         transform="matrix(0.0771024,0,0,0.0771024,10.08794,92.981042)" />
      <path
         d="m 68.514601,120.43799 v 2.65606 h -2.009356 v -2.65606 l -2.693568,-4.9086 h 2.312718 l 1.357294,2.90831 h 0.07089 l 1.386971,-2.90831 h 2.347753 z"
         id="path1064" />
      <path
         d="m 54.035283,121.33323 h 3.16386 v 1.76082 h -5.174865 v -7.56466 h 2.011005 z"
         id="path1056" />
      <path
         inkscape:connector-curvature="0"
         d="m 75.221111,112.04609 v 14.45212 H 33.117369 v -14.45212 z m 1.175525,15.6466 V 110.85861 H 31.94679 v 16.81471 z M 2.834,129.78489 h 2.9276836 c 2.088494,0 3.3349131,1.26373 3.3349131,3.3716 0,2.22286 -1.2637305,3.43178 -3.3349131,3.43178 H 2.834 Z m 1.7752405,5.28121 h 0.8387774 c 1.3432805,-0.0218 1.8807575,-0.5585 1.8807575,-1.91662 0,-1.23817 -0.6681367,-1.83954 -1.8807575,-1.83954 H 4.6092405 Z m 13.0478325,-5.28121 v 6.80049 H 15.87771 v -6.80049 z m 13.323577,6.80338 h -1.149145 l -0.09645,-0.73491 c -0.466995,0.65618 -1.276096,0.88164 -1.898481,0.88164 -2.055108,0 -3.391382,-1.57781 -3.391382,-3.55501 0,-1.97309 1.336274,-3.54059 3.391382,-3.54059 1.41335,0 2.916967,0.75345 3.073593,2.4578 h -1.768233 c -0.05606,-0.57416 -0.634338,-0.93234 -1.339571,-0.93234 -1.145024,0 -1.589349,1.00694 -1.589349,2.01513 0,1.02178 0.444325,2.03655 1.589349,2.03655 0.875873,0 1.465284,-0.41877 1.558436,-1.03785 h -1.237763 v -1.30907 h 2.857201 v 3.71865 z m 8.719988,-6.80338 v 6.80049 H 37.9221 v -6.80049 z m 12.439461,1.52505 h -2.031613 v 5.27833 H 48.33984 v -5.27833 h -2.029553 v -1.52505 h 5.829812 z m 8.304103,-1.52505 h 1.800795 l 2.547246,6.80338 h -1.853966 l -0.417946,-1.21963 h -2.367537 l -0.437319,1.21963 h -1.81687 z m 0.114173,4.26685 h 1.54401 l -0.752633,-2.37578 h -0.02267 z m 10.896275,-4.26685 h 1.771943 v 5.28121 h 3.174165 v 1.52217 H 71.45465 Z"
         id="path4686" />
    </g>
  </g>
</svg>
